<?xml version="1.0" encoding="utf-8"?>
<!-- Generator: Adobe Illustrator 16.0.2, SVG Export Plug-In . SVG Version: 6.00 Build 0)  -->
<!DOCTYPE svg PUBLIC "-//W3C//DTD SVG 1.1//EN" "http://www.w3.org/Graphics/SVG/1.1/DTD/svg11.dtd">
<svg version="1.1" id="Layer_1" xmlns="http://www.w3.org/2000/svg" xmlns:xlink="http://www.w3.org/1999/xlink" x="0px" y="0px"
	 width="498.072px" height="233.292px" viewBox="127.623 242.181 498.072 233.292"
	 enable-background="new 127.623 242.181 498.072 233.292" xml:space="preserve">
<g>
	<g>
		<path fill-rule="evenodd" clip-rule="evenodd" fill="#6D6D6D" d="M315.593,366.89c-0.488,10.921,0.308,22.082-1.685,32.721
			c-8.527,45.568-52.392,79.361-96.988,75.57c-49.931-4.242-88.087-42.752-89.265-90.089c-1.235-49.637,33.092-90.423,80.959-97.545
			c42.559-6.333,92.832,19.691,105.326,72.88C314.491,362.581,315.042,364.735,315.593,366.89z M293.924,364.935
			c-4.998-31.141-33.64-56.172-67.725-57.991c-31.183-1.662-55.191,11.88-69.83,39.077c-14.5,26.94-12.458,54.373,5.865,79.031
			c18.55,24.961,44.335,34.152,74.831,28.496c34.034-6.314,62.992-39.129,58.638-81.436
			C295.109,369.72,294.517,367.329,293.924,364.935z"/>
		<path fill-rule="evenodd" clip-rule="evenodd" fill="#6C6C6C" d="M462.863,340.599c5.515,3.475,11.032,6.952,17.759,11.191
			c-48.51,28.01-96.199,55.549-145.217,83.854c0-24.49,0-47.402,0-70.315c-0.027-2.8-0.055-5.6-0.084-8.4c0-29.3,0-58.6,0-89.331
			c16.488,9.475,32.053,18.369,47.568,27.348c22.727,13.151,45.412,26.372,68.142,39.522c0.897,0.52,2.047,0.604,3.077,0.892
			C457.027,337.106,459.945,338.853,462.863,340.599z M355.379,353.515c0,2.369,0,4.738,0,7.105c0,13.006,0,26.015,0,40.543
			c29.027-16.769,56.786-32.807,86.245-49.825c-5.188-2.313-8.571-3.818-11.951-5.323c-3.223-1.86-6.447-3.722-9.671-5.582
			c-8.095-5.049-16.093-10.265-24.311-15.105c-13.106-7.719-26.359-15.188-40.313-23.202
			C355.379,320.129,355.379,336.822,355.379,353.515z"/>
		<path fill-rule="evenodd" clip-rule="evenodd" fill="#1E1E1E" d="M486.888,328.844c0-28.261,0-56.522,0-86.663
			c46.716,26.95,92.103,53.132,138.808,80.076c-46.225,26.704-91.586,52.908-138.631,80.084c0-23.166,0-44.907,0-66.651
			C487.005,333.408,486.947,331.126,486.888,328.844z M507.346,365.104c0.224,0.618,0.447,1.238,0.67,1.857
			c0.826-0.461,1.652-0.921,2.477-1.382c24.802-14.226,49.604-28.451,75.432-43.265c-26.665-15.377-52.007-29.991-78.362-45.191
			c0,16.68,0,31.675,0,46.669c0.035,2.413,0.07,4.823,0.106,7.234C507.562,342.387,507.453,353.746,507.346,365.104z"/>
		<path fill-rule="evenodd" clip-rule="evenodd" fill="#959595" d="M486.888,328.844c0.06,2.282,0.117,4.564,0.177,6.846
			c-8.066,1.636-16.132,3.272-24.201,4.909c-2.918-1.746-5.836-3.493-8.755-5.239C465.036,333.188,475.962,331.017,486.888,328.844z
			"/>
		<path fill-rule="evenodd" clip-rule="evenodd" fill="#959595" d="M335.321,356.929c0.029,2.801,0.057,5.6,0.084,8.4
			c-6.604,0.521-13.209,1.041-19.813,1.561c-0.551-2.155-1.102-4.31-1.652-6.463C321.068,359.261,328.195,358.095,335.321,356.929z"
			/>
		<path fill-rule="evenodd" clip-rule="evenodd" fill="#949494" d="M295.703,372.113c-18.342,2.981-36.684,5.959-55.023,8.946
			c-1.894,0.309-3.777,0.68-5.667,1.021c-0.1-2.188-0.2-4.379-0.301-6.567c19.737-3.525,39.474-7.053,59.212-10.578
			C294.517,367.329,295.109,369.72,295.703,372.113z"/>
		<path fill-rule="evenodd" clip-rule="evenodd" fill="#949494" d="M399.612,345.881c6.797-1.816,13.593-3.632,20.39-5.447
			c3.224,1.86,6.448,3.722,9.671,5.581c-9.906,2.135-19.811,4.272-29.716,6.41C399.842,350.243,399.726,348.062,399.612,345.881z"/>
		<path fill-rule="evenodd" clip-rule="evenodd" fill="#939393" d="M355.379,353.515c5.977-1.036,11.953-2.069,17.93-3.105
			c0.037,2.155,0.074,4.308,0.111,6.461c-6.014,1.25-12.027,2.5-18.041,3.749C355.379,358.253,355.379,355.884,355.379,353.515z"/>
		<path fill-rule="evenodd" clip-rule="evenodd" fill="#A9A9A9" d="M507.562,323.793c4.577-0.516,9.157-1.032,13.734-1.549
			c0.727,2.25,1.452,4.498,2.178,6.746c-5.269,0.68-10.536,1.359-15.806,2.038C507.632,328.617,507.597,326.206,507.562,323.793z"/>
		<path fill-rule="evenodd" clip-rule="evenodd" fill="#A9A9A9" d="M507.346,365.104c1.05,0.158,2.097,0.317,3.146,0.475
			c-0.824,0.46-1.65,0.921-2.477,1.382C507.793,366.343,507.569,365.723,507.346,365.104z"/>
		<path fill-rule="evenodd" clip-rule="evenodd" fill="#6D6D6D" d="M234.712,375.513c0.101,2.188,0.201,4.379,0.301,6.567
			c-0.74,10.452-12.973,15.398-20.869,9.549c-5.968-4.421-7.385-12.359-3.222-18.107c4.622-6.382,12.37-7.763,18.664-3.12
			C231.506,371.82,233.015,373.794,234.712,375.513z"/>
		<path fill-rule="evenodd" clip-rule="evenodd" fill="#6E6E6E" d="M373.42,356.872c-0.037-2.153-0.074-4.307-0.111-6.461
			c5.087-14.222,14.502-15.844,26.304-4.529c0.113,2.181,0.229,4.361,0.345,6.543C395.836,367.242,385.557,368.963,373.42,356.872z"
			/>
		<path fill-rule="evenodd" clip-rule="evenodd" fill="#202020" d="M523.474,328.99c-0.726-2.248-1.451-4.497-2.178-6.746
			c0.509-1.556,0.916-3.153,1.544-4.659c2.682-6.433,7.99-10.016,14.313-7.94c4.223,1.387,8.799,5.64,10.52,9.744
			c2.385,5.684-0.441,11.311-6.236,14.475c-5.781,3.157-11.063,1.986-15.741-2.445C524.9,330.667,524.211,329.804,523.474,328.99z"
			/>
	</g>
</g>
</svg>
