<?xml version="1.0" encoding="utf-8"?>
<!-- Generator: Adobe Illustrator 16.0.2, SVG Export Plug-In . SVG Version: 6.00 Build 0)  -->
<!DOCTYPE svg PUBLIC "-//W3C//DTD SVG 1.1//EN" "http://www.w3.org/Graphics/SVG/1.1/DTD/svg11.dtd">
<svg version="1.1" id="Layer_1" xmlns="http://www.w3.org/2000/svg" xmlns:xlink="http://www.w3.org/1999/xlink" x="0px" y="0px"
	 width="1957px" height="1098px" viewBox="-673 -153 1957 1098" enable-background="new -673 -153 1957 1098" xml:space="preserve">
<g>
	<g>
		<path fill-rule="evenodd" clip-rule="evenodd" fill="#D4E7EF" d="M531.457,945.419c0.015,0.36,0.028,0.721,0.043,1.081
			c-148.667,0-297.333,0-446,0c0.066-0.432,0.132-0.864,0.197-1.296c2.325,0.099,4.65,0.283,6.975,0.284
			c144.264,0.014,288.527,0.012,432.791,0.009C527.461,945.497,529.459,945.446,531.457,945.419z"/>
		<path fill-rule="evenodd" clip-rule="evenodd" fill="#D4E7EF" d="M616.5,946.5c0.035-0.394,0.071-0.787,0.106-1.18l0.416,0.044
			l0.411-0.082c1.327,0.073,2.654,0.208,3.982,0.209c83.816,0.01,167.634,0.01,251.451-0.001c1.495,0,2.99-0.145,4.486-0.222
			c0.049,0.41,0.098,0.821,0.146,1.231C790.5,946.5,703.5,946.5,616.5,946.5z"/>
		<path fill-rule="evenodd" clip-rule="evenodd" fill="#D4E7EF" d="M-265.5,946.5c-0.019-0.312-0.025-0.623-0.019-0.936
			c2.329-0.021,4.657-0.062,6.985-0.062c84.338-0.015,168.677-0.026,253.016-0.038c0.006,0.345,0.012,0.69,0.018,1.035
			C-92.167,946.5-178.833,946.5-265.5,946.5z"/>
		<path fill-rule="evenodd" clip-rule="evenodd" fill="#BBBCBE" d="M1285.5,96.5c-0.306-0.006-0.608,0.023-0.908,0.087
			c0.002-13.393,0.004-26.785,0.006-40.178c0.299,0.055,0.6,0.085,0.902,0.091C1285.5,69.833,1285.5,83.167,1285.5,96.5z"/>
		<path fill-rule="evenodd" clip-rule="evenodd" fill="#28A2D7" d="M145.485,173.445c21.959,0,43.919,0,67.019,0
			c0-21.047,0-41.606,0-62.549c21.185,0,41.229,0,61.896,0c0,2.178-0.011,4.127,0.002,6.075c0.108,17.322,0.301,34.644,0.266,51.966
			c-0.007,3.482,1.13,4.604,4.585,4.582c19.487-0.129,38.977-0.143,58.464-0.016c3.539,0.022,4.509-1.239,4.504-4.641
			c-0.025-17.322,0.166-34.644,0.277-51.965c0.012-1.824,0.002-3.649,0.002-5.936c20.31,0,40.354,0,61.442,0
			c0,20.556,0,41.093,0,62.096c22.595,0,44.153,0,66.479,0c1.038-20.487,2.085-41.154,3.15-62.18c19.034,0,37.752,0,56.77,0
			c0.31,4.188,0.752,8.13,0.869,12.081c0.8,27.132,1.546,54.266,2.257,81.4c0.048,1.805-0.33,3.622-0.51,5.433
			c-1.262,1.524-2.413,3.16-3.803,4.559c-11.145,11.209-22.277,22.432-33.543,33.519c-3.651,3.594-5.647,7.443-5.167,12.782
			c1.529,16.975,2.768,33.975,4.118,50.966c1.436,20.263,2.833,40.529,4.316,60.789c1.494,20.426,3.079,40.845,4.614,61.268
			c2.233,29.722,4.48,59.442,6.681,89.167c1.807,24.412,3.532,48.83,5.332,73.242c2.203,29.891,4.468,59.777,6.664,89.669
			c1.807,24.579,3.532,49.164,5.332,73.744c2.199,30.058,4.487,60.11,6.639,90.172c0.903,12.616,1.557,25.25,2.323,37.875
			c-151.796,0.009-303.593,0.018-455.389,0.026c1.599-24.072,3.147-48.147,4.812-72.215c1.471-21.254,3.066-42.5,4.612-63.75
			c2.223-30.546,4.47-61.09,6.671-91.638c1.807-25.07,3.528-50.147,5.345-75.217c2.188-30.215,4.459-60.423,6.651-90.637
			c1.809-24.903,3.531-49.813,5.336-74.717c2.201-30.381,4.448-60.758,6.675-91.137c0.401-5.479,0.798-10.957,1.196-16.437
			c0.374-4.789,0.821-9.572,1.105-14.366c0.717-12.077,0.663-24.253,2.303-36.199c0.921-6.714-1.703-10.688-5.784-14.764
			c-10.61-10.599-21.192-21.226-31.84-31.787c-1.259-1.249-2.854-2.158-4.294-3.225c-0.123-3.819-0.451-7.645-0.336-11.457
			c0.86-28.458,1.806-56.913,2.738-85.368c0.037-1.147,0.21-2.291,0.387-4.125c3.349,0,6.628-0.005,9.907,0.001
			c13.824,0.028,27.648,0.038,41.472,0.114c2.01,0.011,4.799-0.665,4.045,3.098c-0.165,0.969-0.455,1.936-0.479,2.909
			c-0.373,15.459-0.725,30.919-1.049,46.38c-0.069,3.287-0.01,6.578-0.01,10.41C142.582,173.445,144.033,173.445,145.485,173.445z"
			/>
		<path fill-rule="evenodd" clip-rule="evenodd" fill="#28A2D7" d="M853.568,468.696c1.431,17.579,2.803,35.163,4.308,52.736
			c1.817,21.222,3.75,42.434,5.627,63.65c2.553,28.842,5.12,57.683,7.644,86.526c2.146,24.536,4.226,49.078,6.36,73.615
			c2.538,29.178,5.177,58.347,7.634,87.53c1.562,18.562,2.871,37.144,4.294,55.716c-88.645,0.009-177.29,0.017-265.935,0.024
			c-0.332-14.79-0.772-29.579-0.936-44.371c-0.055-4.952,0.907-9.916,0.857-14.869c-0.088-8.872-0.803-17.739-0.877-26.611
			c-0.15-17.745,0.073-35.494-0.088-53.24c-0.101-11.038-0.736-22.071-0.923-33.111c-0.163-9.663,0.057-19.333-0.074-28.997
			c-0.062-4.459-0.826-8.913-0.796-13.366c0.056-8.372,0.818-16.748,0.643-25.109c-0.383-18.253-1.241-36.497-1.731-54.749
			c-0.097-3.612,0.906-7.25,0.851-10.868c-0.129-8.373-0.816-16.739-0.881-25.111c-0.144-18.746,0.056-37.494-0.09-56.24
			c-0.066-8.539-0.741-17.071-0.925-25.611c-0.415-19.288-1.143-38.587-0.81-57.865c0.133-7.678-2.696-11.933-9.021-15.365
			c-11.383-6.178-22.553-12.752-33.709-19.335c-1.745-1.03-3.974-2.838-4.213-4.534c-0.829-5.887-1.169-11.885-1.155-17.839
			c0.017-7.624,0.68-15.246,0.818-22.873c0.068-3.774-0.425-7.559-0.644-11.339c-0.379-6.519-0.743-13.037-1.113-19.556
			c0.341-4.787,0.682-9.574,1.047-14.719c20.475,0,40.712,0,61.53,0c0.81,18.779,1.614,37.472,2.43,56.392c18.07,0,35.497,0,53.46,0
			c2.23-18.607,4.46-37.216,6.749-56.312c19.37,0,38.742,0,58.887,0c1.095,18.682,2.19,37.381,3.314,56.572
			c9.477,0,18.437,0.004,27.396-0.001c9.498-0.006,19-0.178,28.492,0.046c3.672,0.086,5.106-0.838,5.672-4.766
			c2.482-17.264,5.402-34.464,8.209-51.978c23.47,0,46.715,0,70.448,0c0.564,7.256,1.132,14.338,1.663,21.423
			c1.481,19.756,3.003,39.509,4.359,59.273c0.2,2.912-0.411,5.881-0.648,8.825c-5.991,3.536-12.023,7.003-17.964,10.618
			c-10.071,6.13-20.106,12.32-30.113,18.555c-3.379,2.105-5.815,4.354-4.431,9.295c1.229,4.384,0.902,9.197,1.312,13.816
			C851.505,445.949,852.542,457.322,853.568,468.696z"/>
		<path fill-rule="evenodd" clip-rule="evenodd" fill="#28A2D7" d="M-278.548,382.497c-0.213-3.604-0.897-7.251-0.562-10.802
			c2.081-21.993,4.389-43.965,6.627-65.943c0.42-4.123,0.87-8.243,1.353-12.812c1.448-0.133,2.878-0.375,4.308-0.378
			c17.795-0.03,35.59-0.072,53.384,0.06c1.331,0.01,2.651,1.317,3.977,2.02c-1.012,18.154-2.023,36.312-3.05,54.738
			c4.722,0,8.513,0,12.303,0c16.458,0,32.917,0,49.913,0c1.138-19.11,2.253-37.818,3.387-56.856c19.285,0,37.927-0.001,56.568,0.002
			c0.332,0,0.861-0.083,0.964,0.082c0.604,0.966,1.108,1.994,1.646,3.001c-0.237,0.77-0.647,1.53-0.686,2.31
			c-0.702,14.019-1.385,28.038-2.007,42.062c-0.136,3.059-0.02,6.128-0.02,9.491c3.827,0,6.798,0,9.77,0c20.794,0,41.589,0,63.107,0
			c0.863-19.011,1.718-37.821,2.591-57.038c13.273,0,25.739-0.009,38.204,0.003c9.488,0.009,18.978,0.048,28.466,0.064
			c2.202,0.004,4.637-0.308,3.842,3.233c-0.322,9.954-0.7,19.91-0.954,29.869c-0.402,15.791-0.939,31.585-0.961,47.379
			c-0.008,5.907-2.223,9.412-7.322,12.241c-15.841,8.787-31.519,17.876-47.091,27.13c-1.773,1.054-3.347,3.826-3.528,5.93
			c-0.699,8.098-0.911,16.245-1.092,24.38c-0.408,18.459-0.712,36.921-1.019,55.382c-0.357,21.459-0.655,42.92-1.009,64.379
			c-0.311,18.795-0.676,37.589-0.992,56.383c-0.349,20.794-0.662,41.587-1.006,62.38c-0.323,19.628-0.677,39.255-0.996,58.882
			c-0.347,21.293-0.765,42.586-0.973,63.881c-0.181,18.493-0.11,36.989-0.151,55.483c0,0.378,0.001,0.757,0.001,1.135
			c0.002,0.954,0.005,1.907,0.007,2.861c-0.28,0.359-0.56,0.72-0.839,1.079c-0.01,7.334-0.021,14.669-0.03,22.003
			c-2.06,0.34-4.12,0.976-6.181,0.977c-86.606,0.057-173.212,0.057-259.818,0.064c1.08-13.429,2.066-26.865,3.262-40.283
			c2.156-24.2,4.437-48.389,6.667-72.582c2.55-27.674,5.115-55.346,7.647-83.021c2.138-23.368,4.213-46.741,6.359-70.108
			c2.512-27.342,5.161-54.672,7.582-82.021c2.273-25.68,4.329-51.379,6.479-77.068c0.349-2.892,0.733-5.778,1.041-8.674
			c1.305-12.27,2.551-24.546,3.894-36.812c0.653-5.962-0.425-10.855-6.901-13.059c-1.208-0.411-2.171-1.497-3.31-2.167
			C-256.64,395.323-267.596,388.914-278.548,382.497z"/>
		<path fill-rule="evenodd" clip-rule="evenodd" fill="#2084AF" d="M81.075,887.57c151.796-0.009,303.593-0.018,455.389-0.026
			c-1.669,19.292-3.338,38.583-5.007,57.875c-1.998,0.027-3.996,0.078-5.994,0.078c-144.264,0.003-288.527,0.005-432.791-0.009
			c-2.324-0.001-4.649-0.186-6.975-0.284c-1.533-18.229-3.071-36.457-4.593-54.687C81.023,889.541,81.082,888.553,81.075,887.57z"/>
		<path fill-rule="evenodd" clip-rule="evenodd" fill="#2084AF" d="M-278.418,887.551c86.606-0.008,173.212-0.008,259.818-0.064
			c2.061-0.001,4.121-0.637,6.181-0.977c1.306,10.382,2.56,20.771,3.938,31.145c0.88,6.623,1.943,13.222,2.924,19.831
			c0.014,2.659,0.026,5.319,0.04,7.979c-84.338,0.012-168.677,0.023-253.016,0.038c-2.328,0-4.657,0.04-6.985,0.062
			C-269.818,926.227-274.118,906.889-278.418,887.551z"/>
		<path fill-rule="evenodd" clip-rule="evenodd" fill="#2084AE" d="M623.5,888.495c88.645-0.008,177.29-0.016,265.935-0.024
			c-3.825,17.792-7.652,35.583-11.47,53.377c-0.242,1.132-0.409,2.279-0.611,3.421c-1.496,0.077-2.991,0.222-4.486,0.222
			c-83.817,0.011-167.635,0.011-251.451,0.001c-1.328-0.001-2.655-0.136-3.981-0.208c0.955-9.553,1.856-19.111,2.876-28.658
			C621.313,907.242,622.432,897.871,623.5,888.495z"/>
		<path fill-rule="evenodd" clip-rule="evenodd" fill="#898B8E" d="M-671.192,206.57c37.651-39.264,75.303-78.528,113.452-118.312
			c-36.571-40.899-72.912-81.541-109.253-122.184c0.432-0.749,0.864-1.497,1.296-2.246c52.805,12.989,105.61,25.979,158.894,39.085
			c1.378-3.688,2.777-7.034,3.893-10.473c15.152-46.681,30.245-93.381,45.473-140.037c0.497-1.522,2.269-2.628,3.447-3.928
			c0.993,1.029,2.548,1.897,2.897,3.112c8.503,29.574,16.837,59.196,25.29,88.784c5.667,19.835,11.467,39.631,17.215,59.441
			c0.413,1.421,0.891,2.823,1.555,4.916c54.315-11.465,108.509-22.904,164.109-34.641c-5.174,5.617-9.355,10.338-13.731,14.872
			c-13.518,14.009-27.166,27.892-40.656,41.928C-311.604,41.76-325.769,56.753-340,71.683c-5.389,5.653-10.702,11.385-16.258,16.87
			c-2.505,2.473-2.174,4.301-0.01,6.682c15.626,17.198,31.251,34.399,46.747,51.715c18.703,20.9,37.246,41.943,55.965,62.829
			c1.741,1.942,4.254,3.193,6.408,4.766c-0.447,0.598-0.893,1.196-1.339,1.794c-7.898-1.718-15.839-3.259-23.686-5.186
			c-29.109-7.149-58.187-14.425-87.275-21.656c-15.439-3.839-30.904-7.582-46.295-11.605c-3.639-0.952-4.859,0.11-5.957,3.516
			c-11.212,34.773-22.564,69.502-33.958,104.217c-5.306,16.168-10.786,32.278-17.286,48.752c-2.429-7.638-5.028-15.227-7.258-22.922
			c-12.704-43.844-25.362-87.701-37.887-131.596c-1.049-3.675-2.347-4.563-6.204-3.738c-47.015,10.053-94.069,19.922-141.126,29.778
			c-4.842,1.014-9.767,1.634-14.653,2.437C-670.446,207.746-670.819,207.158-671.192,206.57z M-653.15-27.898
			c-0.55-0.104-1.101-0.21-1.651-0.314c0.242,0.423,0.484,0.846,0.727,1.269c17.849,20.014,35.688,40.034,53.548,60.037
			c15.202,17.026,30.352,34.101,45.708,50.988c2.884,3.172,2.966,5.368-0.104,8.257c-2.904,2.733-5.389,5.905-8.163,8.783
			c-31.099,32.279-62.22,64.536-93.323,96.811c-0.917,0.952-1.703,2.031-3.248,3.893c32.121-6.806,63.018-13.369,93.923-19.896
			c17.58-3.712,35.159-7.427,52.77-10.986c3.344-0.676,6.857-2.127,8.449,3.513c11.227,39.774,22.762,79.463,34.219,119.173
			c2.453,8.503,4.986,16.983,7.913,26.94c16.557-50.635,32.619-99.759,48.868-149.451c50.706,12.509,100.734,24.851,150.763,37.193
			c-5.604-7.907-11.969-14.763-18.189-21.747c-13.212-14.836-26.274-29.808-39.54-44.596c-12.942-14.428-26.09-28.671-39.09-43.047
			c-5.51-6.093-5.406-8.202,0.33-14.167c9.339-9.712,18.728-19.377,28.038-29.117c12.983-13.583,25.871-27.257,38.879-40.814
			c11.17-11.643,22.454-23.175,33.669-34.773c0.31-0.32,0.401-0.851,0.634-1.371c-0.621-0.05-1.133-0.205-1.593-0.11
			c-16.678,3.449-33.358,6.886-50.022,10.397c-31.736,6.687-63.473,13.367-95.18,20.188c-4.394,0.945-6.371-0.037-7.689-4.663
			c-13.261-46.554-26.771-93.037-40.236-139.534c-0.373-1.288-1.014-2.499-1.94-4.739c-16.445,50.219-32.515,99.291-48.582,148.356
			c-1.916-0.319-2.731-0.399-3.518-0.594c-28.429-7.009-56.849-14.058-85.286-21.037C-612.415-18.054-632.786-22.958-653.15-27.898z
			"/>
		<path fill-rule="evenodd" clip-rule="evenodd" fill="#1D79A0" d="M-5.558,937.485c-0.98-6.609-2.044-13.208-2.924-19.831
			c-1.378-10.373-2.632-20.763-3.938-31.145c0.01-7.334,0.021-14.669,0.028-22.003c0.28-0.359,0.561-0.72,0.841-1.079
			c-0.002-0.954-0.005-1.907-0.006-2.861c0-0.379-0.001-0.757-0.002-1.135c0.041-18.494-0.029-36.99,0.151-55.483
			c0.208-21.295,0.626-42.588,0.973-63.881c0.319-19.627,0.673-39.254,0.996-58.882c0.344-20.793,0.657-41.586,1.006-62.38
			c0.316-18.794,0.682-37.588,0.992-56.383c0.354-21.459,0.651-42.92,1.009-64.379c0.307-18.461,0.61-36.923,1.019-55.382
			c0.181-8.135,0.393-16.282,1.092-24.38c0.182-2.104,1.755-4.876,3.528-5.93c15.572-9.254,31.25-18.343,47.091-27.13
			c5.1-2.829,7.314-6.334,7.322-12.241c0.021-15.794,0.559-31.588,0.961-47.379c0.254-9.959,0.632-19.915,0.954-29.869
			c1.319,14.74,2.622,29.48,3.961,44.216c3.057,33.637-0.503,67.214-0.799,100.82c-0.038,4.409-2.453,6.579-5.773,8.496
			c-14.548,8.403-28.909,17.148-43.691,25.114c-5.704,3.073-7.571,7.079-7.592,13.049c-0.054,15.986-0.31,31.974-0.554,47.959
			c-1.326,86.751-2.645,173.503-4.025,260.254c-0.737,46.288-1.594,92.574-2.404,138.861
			C-5.359,935.498-5.483,936.491-5.558,937.485z"/>
		<path fill-rule="evenodd" clip-rule="evenodd" fill="#2CAAE1" d="M623.5,888.495c-1.068,9.376-2.188,18.747-3.189,28.13
			c-1.02,9.547-1.921,19.105-2.876,28.658c-0.001-0.001-0.412,0.081-0.412,0.081l-0.416-0.044
			c-0.434-45.631-0.825-91.262-1.312-136.892c-0.625-58.618-1.328-117.234-1.992-175.852c-0.565-49.955-1.274-99.91-1.52-149.867
			c-0.035-7.188-2.608-11.335-8.638-14.607c-11.109-6.03-21.912-12.62-32.949-18.787c-3.912-2.186-5.706-5.098-5.651-9.599
			c0.468-38.602-1.97-77.268,2.728-115.773c0.664-5.446,0.95-10.939,1.411-16.41c0.37,6.519,0.734,13.037,1.113,19.556
			c0.219,3.78,0.712,7.564,0.644,11.339c-0.139,7.627-0.802,15.249-0.818,22.873c-0.014,5.954,0.326,11.952,1.155,17.839
			c0.239,1.696,2.468,3.504,4.213,4.534c11.156,6.583,22.326,13.157,33.709,19.335c6.325,3.433,9.154,7.688,9.021,15.365
			c-0.333,19.278,0.395,38.577,0.81,57.865c0.184,8.54,0.858,17.072,0.925,25.611c0.146,18.746-0.054,37.494,0.09,56.24
			c0.064,8.372,0.752,16.738,0.881,25.111c0.056,3.618-0.947,7.256-0.851,10.868c0.49,18.252,1.349,36.496,1.731,54.749
			c0.176,8.361-0.587,16.737-0.643,25.109c-0.03,4.453,0.734,8.907,0.796,13.366c0.131,9.664-0.089,19.334,0.074,28.997
			c0.187,11.04,0.822,22.073,0.923,33.111c0.161,17.746-0.063,35.495,0.088,53.24c0.074,8.872,0.789,17.739,0.877,26.611
			c0.05,4.953-0.912,9.917-0.857,14.869C622.728,858.916,623.168,873.705,623.5,888.495z"/>
		<path fill-rule="evenodd" clip-rule="evenodd" fill="#86888B" d="M1284.598,56.409c-0.002,13.393-0.004,26.785-0.006,40.178
			c-3.328,38.392-17.192,72.72-40.827,102.942c-33.515,42.857-77.594,68.051-131.521,74.563
			c-53.713,6.486-101.704-8.982-144.536-41.44c-1.19-0.901-2.267-1.963-3.343-3.005c-0.952-0.922-1.829-1.921-2.699-2.844
			c2.973-8.075,3.26-8.231,10.862-5.989c59.371,17.509,121.086-6.102,155.946-59.659c41.778-64.187,31.503-150.586-24.858-202.063
			c-34.229-31.261-74.781-41.997-120.39-33.174c-2.287,0.442-4.595,0.799-6.854,1.353c-2.951,0.723-4.278-0.357-5.569-3.18
			c-1.58-3.457-0.823-5.227,2.037-7.38c23.686-17.835,50.153-29.345,79.139-35.226c106.101-21.529,210.791,49.646,230.595,159.099
			C1283.519,45.811,1283.936,51.132,1284.598,56.409z M967.039,225.756c16.952,14.223,35.565,24.838,55.869,32.48
			c39.115,14.724,78.913,16.618,119.098,4.994c83.187-24.063,134.006-98.526,138.426-173.194
			c5.967-100.804-58.834-174.061-131.795-198.216c-69.14-22.891-140.628,0.958-173.701,30.673c3.424-0.625,5.948-1.076,8.469-1.548
			c47.485-8.874,89.404,2.877,124.609,35.687c56.139,52.321,67.35,139.102,26.373,203.983
			c-29.287,46.373-71.411,71.237-126.984,70.398C994.258,230.815,981.158,227.677,967.039,225.756z"/>
		<path fill-rule="evenodd" clip-rule="evenodd" fill="#1B789F" d="M853.568,468.696c-1.026-11.374-2.063-22.747-3.073-34.122
			c-0.409-4.619-0.083-9.433-1.312-13.816c-1.385-4.941,1.052-7.189,4.431-9.295c10.007-6.234,20.042-12.425,30.113-18.555
			c5.94-3.615,11.973-7.082,17.964-10.618c-3.209,17.627-6.942,35.184-9.407,52.916c-1.245,8.96-5.505,14.067-13.155,18.062
			C870.323,457.864,862.064,463.508,853.568,468.696z"/>
		<path fill-rule="evenodd" clip-rule="evenodd" fill="#1C78A0" d="M494.563,311.618c-1.351-16.991-2.589-33.991-4.118-50.966
			c-0.48-5.339,1.516-9.188,5.167-12.782c11.266-11.087,22.398-22.31,33.543-33.519c1.39-1.398,2.541-3.034,3.803-4.559
			c-1.405,21.405-2.744,42.813-4.318,64.205c-0.156,2.125-1.263,4.613-2.745,6.137C515.571,290.747,505.032,301.148,494.563,311.618
			z"/>
		<path fill-rule="evenodd" clip-rule="evenodd" fill="#2AAAE1" d="M83.863,211.483c1.439,1.066,3.035,1.976,4.294,3.225
			c10.647,10.562,21.229,21.188,31.84,31.787c4.081,4.076,6.705,8.05,5.784,14.764c-1.64,11.946-1.586,24.122-2.303,36.199
			c-0.284,4.794-0.731,9.577-1.105,14.366c-10.458-10.487-20.994-20.9-31.294-31.543c-1.601-1.654-2.854-4.301-3.024-6.582
			C86.501,252.973,85.223,232.226,83.863,211.483z"/>
		<path fill-rule="evenodd" clip-rule="evenodd" fill="#2AAAE1" d="M-278.548,382.497c10.952,6.417,21.908,12.826,32.851,19.259
			c1.138,0.67,2.101,1.756,3.31,2.167c6.476,2.203,7.555,7.097,6.901,13.059c-1.343,12.266-2.589,24.542-3.894,36.812
			c-0.308,2.896-0.692,5.782-1.041,8.674c-7.81-4.731-15.679-9.37-23.38-14.271c-1.533-0.977-3.169-2.813-3.5-4.501
			c-3.891-19.874-7.544-39.795-11.244-59.706C-278.635,383.508-278.551,382.995-278.548,382.497z"/>
		<path fill-rule="evenodd" clip-rule="evenodd" fill="#1F7AA1" d="M-200.208,349.38c-3.791,0-7.581,0-12.303,0
			c1.026-18.427,2.038-36.584,3.05-54.738c2.313,13.344,4.645,26.682,6.927,40.028C-201.697,339.563-200.979,344.477-200.208,349.38
			z"/>
		<path fill-rule="evenodd" clip-rule="evenodd" fill="#207BA2" d="M-80.673,349.471c-2.972,0-5.943,0-9.77,0
			c0-3.363-0.116-6.433,0.02-9.491c0.622-14.023,1.305-28.043,2.007-42.062c0.039-0.779,0.449-1.54,0.686-2.31
			C-85.378,313.563-83.025,331.517-80.673,349.471z"/>
		<path fill-rule="evenodd" clip-rule="evenodd" fill="#2780A7" d="M145.485,173.445c-1.452,0-2.903,0-4.946,0
			c0-3.832-0.06-7.123,0.01-10.41c0.324-15.461,0.676-30.921,1.049-46.38c0.023-0.974,0.313-1.94,0.479-2.909
			C143.213,133.646,144.349,153.546,145.485,173.445z"/>
		<path fill-rule="evenodd" clip-rule="evenodd" fill="#2084AF" d="M-11.558,859.432c0.001,0.378,0.002,0.756,0.002,1.135
			C-11.557,860.188-11.558,859.81-11.558,859.432z"/>
		<path fill-rule="evenodd" clip-rule="evenodd" fill="#2084AF" d="M-11.55,863.428c-0.28,0.359-0.561,0.72-0.841,1.079
			C-12.109,864.147-11.83,863.787-11.55,863.428z"/>
		<path fill-rule="evenodd" clip-rule="evenodd" fill="#FEFEFE" d="M-654.075-26.944c-0.242-0.423-0.484-0.846-0.727-1.269
			c0.55,0.104,1.101,0.21,1.652,0.313C-653.457-27.583-653.766-27.264-654.075-26.944z"/>
	</g>
</g>
</svg>
